<mxfile host="Electron" agent="Mozilla/5.0 (Macintosh; Intel Mac OS X 10_15_7) AppleWebKit/537.36 (KHTML, like Gecko) draw.io/26.2.15 Chrome/134.0.6998.205 Electron/35.2.1 Safari/537.36" version="26.2.15">
  <diagram name="bronze_layer" id="6bdQotGeXeKKRhWtamzd">
    <mxGraphModel dx="2789" dy="1863" grid="1" gridSize="10" guides="1" tooltips="1" connect="1" arrows="1" fold="1" page="1" pageScale="1" pageWidth="2336" pageHeight="1654" math="0" shadow="0">
      <root>
        <mxCell id="0" />
        <mxCell id="1" parent="0" />
        <mxCell id="9hzKF9WA8CcGwuKkUCpS-1" value="&lt;b&gt;&lt;font style=&quot;font-size: 24px;&quot;&gt;Bronze Layer&lt;/font&gt;&lt;/b&gt;" style="rounded=0;whiteSpace=wrap;html=1;fillColor=#ffe6cc;strokeColor=#d79b00;shadow=1;gradientColor=none;" parent="1" vertex="1">
          <mxGeometry x="1078" y="40" width="180" height="60" as="geometry" />
        </mxCell>
        <mxCell id="9hzKF9WA8CcGwuKkUCpS-2" value="" style="editableCssRules=.*;html=1;shape=image;verticalLabelPosition=bottom;labelBackgroundColor=#ffffff;verticalAlign=top;aspect=fixed;imageAspect=0;image=data:image/svg+xml,PHN2ZyB4bWxucz0iaHR0cDovL3d3dy53My5vcmcvMjAwMC9zdmciIHhtbG5zOnY9Imh0dHBzOi8vdmVjdGEuaW8vbmFubyIgd2lkdGg9IjE0LjY1OTk5OTg0NzQxMjExIiBoZWlnaHQ9IjIwIiB2aWV3Qm94PSIwIDAgMTQuNjU5OTk5ODQ3NDEyMTEgMjAiIHN0eWxlPSJjb2xvci1zY2hlbWU6IGxpZ2h0IGRhcms7Ij4mI3hhOwk8c3R5bGUgdHlwZT0idGV4dC9jc3MiPi5zdDAgeyBmaWxsOiBsaWdodC1kYXJrKHJnYigyNTUsIDE1MywgNTEpLCByZ2IoNjYsIDEzMywgMjQ0KSk7IH0gLnN0MSB7IGZpbGw6IGxpZ2h0LWRhcmsocmdiKDI1NSwgMTUzLCA1MSksIHJnYigxMDIsIDE1NywgMjQ2KSk7IH0gLnN0MiB7IGZpbGw6IGxpZ2h0LWRhcmsocmdiKDI1NSwgMTUzLCA1MSksIHJnYigxNzQsIDIwMywgMjUwKSk7IH0gPC9zdHlsZT4mI3hhOwk8c3R5bGU+JiN4YTsJCS5Ee2ZpbGwtcnVsZTpldmVub2RkfSYjeGE7CTwvc3R5bGU+JiN4YTsJPHBhdGggZD0iTTcuMzMgMTUuMzV2LTMuMDFMMCA4LjQ0djMuMDF6bTAgNC42NXYtMy4wMUwwIDEzLjA5djMuMDF6IiBjbGFzcz0ic3QyIEQiLz4mI3hhOwk8cGF0aCBkPSJNMTQuNjYgOC40NGwtNy4zMyAzLjl2My4wMWw3LjMzLTMuOXptMCA0LjY1bC03LjMzIDMuOVYyMGw3LjMzLTMuOXoiIGNsYXNzPSJzdDEgRCIvPiYjeGE7CTxwYXRoIGQ9Ik03LjMzIDB2My4wMWw3LjMzIDMuOVYzLjl6IiBjbGFzcz0ic3QwIEQiLz4mI3hhOwk8cGF0aCBkPSJNMCA2LjkxbDcuMzMtMy45VjBMMCAzLjl6IiBjbGFzcz0iRCBzdDEiLz4mI3hhOwk8cGF0aCBkPSJNNy4zMyAxMC43OVY3Ljc3TDAgMy44N3YzLjAyeiIgY2xhc3M9IkQgc3QyIi8+JiN4YTsJPHBhdGggZD0iTTE0LjY2IDMuODdsLTcuMzMgMy45djMuMDJsNy4zMy0zLjl6IiBjbGFzcz0iRCBzdDEiLz4mI3hhOzwvc3ZnPg==;" parent="1" vertex="1">
          <mxGeometry x="1030" y="40" width="45" height="60" as="geometry" />
        </mxCell>
        <mxCell id="9hzKF9WA8CcGwuKkUCpS-5" value="&lt;font style=&quot;font-size: 14px;&quot;&gt;&lt;b style=&quot;&quot;&gt;Interview&lt;/b&gt; Source System&lt;/font&gt;&lt;div&gt;&lt;font style=&quot;font-size: 14px;&quot;&gt;Experts&lt;/font&gt;&lt;/div&gt;" style="rounded=1;whiteSpace=wrap;html=1;arcSize=5;shadow=1;" parent="1" vertex="1">
          <mxGeometry x="553" y="200" width="220" height="60" as="geometry" />
        </mxCell>
        <mxCell id="9hzKF9WA8CcGwuKkUCpS-6" value="&lt;b&gt;&lt;font style=&quot;font-size: 15px;&quot;&gt;Analysing&lt;/font&gt;&lt;/b&gt;" style="rounded=0;whiteSpace=wrap;html=1;fillColor=#dae8fc;strokeColor=#6c8ebf;" parent="1" vertex="1">
          <mxGeometry x="583" y="180" width="160" height="30" as="geometry" />
        </mxCell>
        <mxCell id="9hzKF9WA8CcGwuKkUCpS-7" value="&lt;span style=&quot;font-size: 14px;&quot;&gt;Data&lt;b&gt; Ingestion&lt;/b&gt;&lt;/span&gt;" style="rounded=1;whiteSpace=wrap;html=1;arcSize=5;shadow=1;" parent="1" vertex="1">
          <mxGeometry x="892" y="200" width="220" height="60" as="geometry" />
        </mxCell>
        <mxCell id="9hzKF9WA8CcGwuKkUCpS-8" value="&lt;b&gt;&lt;font style=&quot;font-size: 15px;&quot;&gt;Coding&lt;/font&gt;&lt;/b&gt;" style="rounded=0;whiteSpace=wrap;html=1;fillColor=#dae8fc;strokeColor=#6c8ebf;" parent="1" vertex="1">
          <mxGeometry x="922" y="180" width="160" height="30" as="geometry" />
        </mxCell>
        <mxCell id="9hzKF9WA8CcGwuKkUCpS-9" value="" style="html=1;shadow=0;dashed=0;align=center;verticalAlign=middle;shape=mxgraph.arrows2.arrow;dy=0;dx=30;notch=30;fillColor=#000000;" parent="1" vertex="1">
          <mxGeometry x="803" y="205" width="60" height="50" as="geometry" />
        </mxCell>
        <mxCell id="9hzKF9WA8CcGwuKkUCpS-10" value="&lt;span style=&quot;font-size: 14px;&quot;&gt;Data &lt;b&gt;Completeness &amp;amp;&lt;/b&gt;&lt;/span&gt;&lt;div&gt;&lt;span style=&quot;font-size: 14px;&quot;&gt;&lt;b&gt;Schema&lt;/b&gt; Checks&lt;/span&gt;&lt;/div&gt;" style="rounded=1;whiteSpace=wrap;html=1;arcSize=5;shadow=1;" parent="1" vertex="1">
          <mxGeometry x="1223" y="200" width="220" height="60" as="geometry" />
        </mxCell>
        <mxCell id="9hzKF9WA8CcGwuKkUCpS-11" value="&lt;b&gt;&lt;font style=&quot;font-size: 15px;&quot;&gt;Validating&lt;/font&gt;&lt;/b&gt;" style="rounded=0;whiteSpace=wrap;html=1;fillColor=#dae8fc;strokeColor=#6c8ebf;" parent="1" vertex="1">
          <mxGeometry x="1253" y="180" width="160" height="30" as="geometry" />
        </mxCell>
        <mxCell id="9hzKF9WA8CcGwuKkUCpS-12" value="" style="html=1;shadow=0;dashed=0;align=center;verticalAlign=middle;shape=mxgraph.arrows2.arrow;dy=0;dx=30;notch=30;fillColor=#000000;" parent="1" vertex="1">
          <mxGeometry x="1143" y="205" width="60" height="50" as="geometry" />
        </mxCell>
        <mxCell id="9hzKF9WA8CcGwuKkUCpS-13" value="" style="html=1;shadow=0;dashed=0;align=center;verticalAlign=middle;shape=mxgraph.arrows2.arrow;dy=0;dx=30;notch=30;fillColor=#000000;" parent="1" vertex="1">
          <mxGeometry x="1473" y="205" width="60" height="50" as="geometry" />
        </mxCell>
        <mxCell id="9hzKF9WA8CcGwuKkUCpS-14" value="&lt;span style=&quot;font-size: 14px;&quot;&gt;Data &lt;b&gt;Documenting&lt;/b&gt;&lt;/span&gt;&lt;div&gt;&lt;span style=&quot;font-size: 14px;&quot;&gt;Versioning in &lt;b&gt;GIT&lt;/b&gt;&lt;/span&gt;&lt;/div&gt;" style="rounded=1;whiteSpace=wrap;html=1;arcSize=5;shadow=1;" parent="1" vertex="1">
          <mxGeometry x="1563" y="200" width="220" height="60" as="geometry" />
        </mxCell>
        <mxCell id="9hzKF9WA8CcGwuKkUCpS-15" value="&lt;b&gt;&lt;font style=&quot;font-size: 15px;&quot;&gt;Docs &amp;amp; Version&lt;/font&gt;&lt;/b&gt;" style="rounded=0;whiteSpace=wrap;html=1;fillColor=#dae8fc;strokeColor=#6c8ebf;" parent="1" vertex="1">
          <mxGeometry x="1593" y="180" width="160" height="30" as="geometry" />
        </mxCell>
        <mxCell id="9hzKF9WA8CcGwuKkUCpS-16" value="" style="rounded=1;whiteSpace=wrap;html=1;arcSize=5;shadow=1;shadowOpacity=100;shadowOffsetX=4;" parent="1" vertex="1">
          <mxGeometry x="440" y="360" width="400" height="260" as="geometry" />
        </mxCell>
        <mxCell id="9hzKF9WA8CcGwuKkUCpS-17" value="&lt;font style=&quot;font-size: 18px; color: rgb(255, 255, 255);&quot;&gt;&lt;b&gt;Business Context &amp;amp; Ownership&lt;/b&gt;&lt;/font&gt;" style="rounded=0;whiteSpace=wrap;html=1;fillColor=#000000;shadow=1;" parent="1" vertex="1">
          <mxGeometry x="485" y="340" width="310" height="40" as="geometry" />
        </mxCell>
        <mxCell id="9hzKF9WA8CcGwuKkUCpS-19" value="&lt;font style=&quot;font-size: 15px;&quot;&gt;Who &lt;b style=&quot;&quot;&gt;own&lt;/b&gt; the &lt;b style=&quot;&quot;&gt;data&lt;/b&gt; ?&lt;/font&gt;" style="rounded=0;whiteSpace=wrap;html=1;shadow=1;" parent="1" vertex="1">
          <mxGeometry x="450" y="410" width="380" height="40" as="geometry" />
        </mxCell>
        <mxCell id="9hzKF9WA8CcGwuKkUCpS-20" value="&lt;span style=&quot;font-size: 15px;&quot;&gt;What &lt;b&gt;Business Process&lt;/b&gt; it supports ?&lt;/span&gt;" style="rounded=0;whiteSpace=wrap;html=1;shadow=1;" parent="1" vertex="1">
          <mxGeometry x="450" y="460" width="380" height="40" as="geometry" />
        </mxCell>
        <mxCell id="9hzKF9WA8CcGwuKkUCpS-21" value="&lt;span style=&quot;font-size: 15px;&quot;&gt;System &amp;amp; Data &lt;b&gt;documentation&lt;/b&gt;&lt;/span&gt;" style="rounded=0;whiteSpace=wrap;html=1;shadow=1;" parent="1" vertex="1">
          <mxGeometry x="450" y="510" width="380" height="40" as="geometry" />
        </mxCell>
        <mxCell id="9hzKF9WA8CcGwuKkUCpS-22" value="&lt;span style=&quot;font-size: 15px;&quot;&gt;Data &lt;b&gt;Model&lt;/b&gt; &amp;amp; Data &lt;b&gt;Catalog&lt;/b&gt;&lt;/span&gt;" style="rounded=0;whiteSpace=wrap;html=1;shadow=1;" parent="1" vertex="1">
          <mxGeometry x="450" y="560" width="380" height="40" as="geometry" />
        </mxCell>
        <mxCell id="9hzKF9WA8CcGwuKkUCpS-23" value="" style="rounded=1;whiteSpace=wrap;html=1;arcSize=5;shadow=1;shadowOpacity=100;shadowOffsetX=5;" parent="1" vertex="1">
          <mxGeometry x="440" y="700" width="400" height="180" as="geometry" />
        </mxCell>
        <mxCell id="9hzKF9WA8CcGwuKkUCpS-24" value="&lt;font style=&quot;font-size: 18px; color: rgb(255, 255, 255);&quot;&gt;&lt;b&gt;Architecture &amp;amp; Technology Stack&lt;/b&gt;&lt;/font&gt;" style="rounded=0;whiteSpace=wrap;html=1;fillColor=#000000;shadow=1;" parent="1" vertex="1">
          <mxGeometry x="485" y="680" width="310" height="40" as="geometry" />
        </mxCell>
        <mxCell id="9hzKF9WA8CcGwuKkUCpS-25" value="&lt;span style=&quot;font-size: 15px;&quot;&gt;How is data &lt;b&gt;stored&lt;/b&gt; ?&lt;/span&gt;&lt;div&gt;&lt;span style=&quot;font-size: 15px;&quot;&gt;(SQL Server, Oracle, AWS, Azure, ...)&lt;/span&gt;&lt;/div&gt;" style="rounded=0;whiteSpace=wrap;html=1;shadow=1;" parent="1" vertex="1">
          <mxGeometry x="450" y="750" width="380" height="50" as="geometry" />
        </mxCell>
        <mxCell id="9hzKF9WA8CcGwuKkUCpS-29" value="&lt;span style=&quot;font-size: 15px;&quot;&gt;What are the &lt;b&gt;Integration capabilities &lt;/b&gt;?&lt;/span&gt;&lt;div&gt;&lt;span style=&quot;font-size: 15px;&quot;&gt;(API, Kafka, File Extract, Direct DB, ...)&lt;/span&gt;&lt;/div&gt;" style="rounded=0;whiteSpace=wrap;html=1;shadow=1;" parent="1" vertex="1">
          <mxGeometry x="450" y="810" width="380" height="50" as="geometry" />
        </mxCell>
        <mxCell id="9hzKF9WA8CcGwuKkUCpS-30" value="" style="rounded=1;whiteSpace=wrap;html=1;arcSize=5;shadow=1;shadowOpacity=100;shadowOffsetX=5;" parent="1" vertex="1">
          <mxGeometry x="940" y="420" width="400" height="380" as="geometry" />
        </mxCell>
        <mxCell id="9hzKF9WA8CcGwuKkUCpS-31" value="&lt;font style=&quot;font-size: 18px; color: rgb(255, 255, 255);&quot;&gt;&lt;b&gt;Extract &amp;amp; Load&lt;/b&gt;&lt;/font&gt;" style="rounded=0;whiteSpace=wrap;html=1;fillColor=#000000;shadow=1;" parent="1" vertex="1">
          <mxGeometry x="985" y="400" width="310" height="40" as="geometry" />
        </mxCell>
        <mxCell id="9hzKF9WA8CcGwuKkUCpS-32" value="&lt;span style=&quot;font-size: 15px;&quot;&gt;&lt;b&gt;Incremental &lt;/b&gt;vs. &lt;b&gt;Full Loads&lt;/b&gt;&amp;nbsp;?&lt;/span&gt;" style="rounded=0;whiteSpace=wrap;html=1;shadow=1;" parent="1" vertex="1">
          <mxGeometry x="950" y="470" width="380" height="40" as="geometry" />
        </mxCell>
        <mxCell id="9hzKF9WA8CcGwuKkUCpS-33" value="&lt;span style=&quot;font-size: 15px;&quot;&gt;Data &lt;b&gt;Scope &lt;/b&gt;&amp;amp; &lt;b&gt;Historical &lt;/b&gt;Needs&lt;/span&gt;" style="rounded=0;whiteSpace=wrap;html=1;shadow=1;" parent="1" vertex="1">
          <mxGeometry x="950" y="520" width="380" height="40" as="geometry" />
        </mxCell>
        <mxCell id="9hzKF9WA8CcGwuKkUCpS-34" value="&lt;span style=&quot;font-size: 15px;&quot;&gt;What is the expected &lt;b&gt;size &lt;/b&gt;of the &lt;b&gt;extracts &lt;/b&gt;?&lt;/span&gt;" style="rounded=0;whiteSpace=wrap;html=1;shadow=1;" parent="1" vertex="1">
          <mxGeometry x="950" y="570" width="380" height="40" as="geometry" />
        </mxCell>
        <mxCell id="9hzKF9WA8CcGwuKkUCpS-35" value="&lt;span style=&quot;font-size: 15px;&quot;&gt;Are there any data &lt;b&gt;volume limitations &lt;/b&gt;?&lt;/span&gt;" style="rounded=0;whiteSpace=wrap;html=1;shadow=1;" parent="1" vertex="1">
          <mxGeometry x="950" y="620" width="380" height="40" as="geometry" />
        </mxCell>
        <mxCell id="9hzKF9WA8CcGwuKkUCpS-36" value="&lt;span style=&quot;font-size: 15px;&quot;&gt;How to &lt;b&gt;avoid impacting &lt;/b&gt;the source&lt;/span&gt;&lt;div&gt;&lt;span style=&quot;font-size: 15px;&quot;&gt;system&#39;s &lt;b&gt;performance &lt;/b&gt;?&lt;/span&gt;&lt;/div&gt;" style="rounded=0;whiteSpace=wrap;html=1;shadow=1;" parent="1" vertex="1">
          <mxGeometry x="950" y="670" width="380" height="50" as="geometry" />
        </mxCell>
        <mxCell id="9hzKF9WA8CcGwuKkUCpS-37" value="&lt;span style=&quot;font-size: 15px;&quot;&gt;&lt;b&gt;authentication &lt;/b&gt;and &lt;b&gt;authorization&lt;/b&gt;&lt;/span&gt;&lt;div&gt;&lt;span style=&quot;font-size: 15px;&quot;&gt;(tokens, SSH keys, VPN, IP whitelisting, ...)&lt;/span&gt;&lt;/div&gt;" style="rounded=0;whiteSpace=wrap;html=1;shadow=1;" parent="1" vertex="1">
          <mxGeometry x="950" y="730" width="380" height="50" as="geometry" />
        </mxCell>
        <mxCell id="QrKSv-UqAWNYbQrHISNn-1" value="&lt;font style=&quot;font-size: 60px;&quot;&gt;\Rahul-404&lt;/font&gt;" style="rounded=0;whiteSpace=wrap;html=1;align=right;" parent="1" vertex="1">
          <mxGeometry x="1930" y="1510" width="390" height="120" as="geometry" />
        </mxCell>
        <mxCell id="QrKSv-UqAWNYbQrHISNn-2" value="" style="dashed=0;outlineConnect=0;html=1;align=center;labelPosition=center;verticalLabelPosition=bottom;verticalAlign=top;shape=mxgraph.weblogos.github;strokeWidth=1;" parent="1" vertex="1">
          <mxGeometry x="1940" y="1532.5" width="70" height="75" as="geometry" />
        </mxCell>
      </root>
    </mxGraphModel>
  </diagram>
</mxfile>
